<?xml version="1.0" encoding="utf-8"?>
<!-- Generator: Adobe Illustrator 16.0.0, SVG Export Plug-In . SVG Version: 6.00 Build 0)  -->
<!DOCTYPE svg PUBLIC "-//W3C//DTD SVG 1.1//EN" "http://www.w3.org/Graphics/SVG/1.1/DTD/svg11.dtd">
<svg version="1.1" id="Слой_1" xmlns="http://www.w3.org/2000/svg" xmlns:xlink="http://www.w3.org/1999/xlink" x="0px" y="0px"
	 width="100px" height="100px" viewBox="0 0 100 100" enable-background="new 0 0 100 100" xml:space="preserve">
<g>
	<g>
		<path fill="none" stroke="#127BC0" stroke-linecap="round" stroke-linejoin="round" stroke-miterlimit="10" d="M50.865,5.186
			c25.371,0,45.938,20.568,45.938,45.937c0,25.374-20.566,45.94-45.938,45.94c-25.373,0-45.939-20.566-45.939-45.94
			C4.926,25.754,25.493,5.186,50.865,5.186z"/>
	</g>
</g>
<g>
	<g>
		<path fill="none" stroke="#127BC0" stroke-miterlimit="10" d="M75.25,59.812c0,1.65-1.35,3-3,3H29.479c-1.65,0-3-1.35-3-3v-27
			c0-1.65,1.35-3,3-3H72.25c1.65,0,3,1.35,3,3V59.812z"/>
	</g>
	<line fill="none" stroke="#127BC0" stroke-miterlimit="10" x1="26.479" y1="57.146" x2="75.25" y2="57.146"/>
	<path fill="none" stroke="#127BC0" stroke-miterlimit="10" d="M53.9,62.812c0,0-0.498,6.039,4.844,7.75
		c1.143,0.367,0.545,1.877-0.141,1.877c-2.422,0-13.059,0-15.48,0c-0.686,0-1.283-1.51-0.141-1.877
		c5.344-1.711,4.844-7.75,4.844-7.75"/>
</g>
</svg>
