<?xml version="1.0" encoding="utf-8"?>
<!-- Generator: Adobe Illustrator 16.0.0, SVG Export Plug-In . SVG Version: 6.00 Build 0)  -->
<!DOCTYPE svg PUBLIC "-//W3C//DTD SVG 1.1//EN" "http://www.w3.org/Graphics/SVG/1.1/DTD/svg11.dtd">
<svg version="1.1" id="Слой_1" xmlns="http://www.w3.org/2000/svg" xmlns:xlink="http://www.w3.org/1999/xlink" x="0px" y="0px"
	 width="100px" height="100px" viewBox="0 0 100 100" enable-background="new 0 0 100 100" xml:space="preserve">
<g>
	<g id="Layer_2_5_">
		
			<circle fill="#FFFFFF" stroke="#127BC0" stroke-linecap="round" stroke-linejoin="round" stroke-miterlimit="10" cx="51.414" cy="49.104" r="46.394"/>
	</g>
</g>
<g>
	<path fill="#127BC0" d="M42.602,65.654c0-0.139,0.088-0.314,0.265-0.531c0.177-0.215,0.374-0.354,0.589-0.412
		c1.436,1.277,3.744,1.916,6.928,1.916c5.639,0,8.459-2.691,8.459-8.076c0-1.494-0.363-2.893-1.09-4.203
		c-0.728-1.303-1.976-2.764-3.744-4.375l-6.777-5.748c-1.441-1.316-2.523-2.524-3.248-3.625s-1.087-2.279-1.087-3.537
		c0-1.848,0.742-3.373,2.226-4.585c1.483-1.206,3.522-1.899,6.116-2.077v-6.277c0-0.393,0.083-0.639,0.251-0.737
		c0.166-0.099,0.525-0.147,1.075-0.147v7.162c1.396,0.021,2.647,0.178,3.759,0.473c1.109,0.295,1.886,0.576,2.328,0.838
		c0.442,0.269,0.663,0.439,0.663,0.518c0,0.196-0.054,0.439-0.162,0.721c-0.108,0.288-0.231,0.469-0.368,0.547
		c-1.514-1.081-3.793-1.621-6.838-1.621c-2.398,0-4.274,0.441-5.631,1.326c-1.355,0.885-2.033,2.23-2.033,4.038
		c0,1.651,1.236,3.597,3.707,5.837l7.641,6.484c1.71,1.533,2.903,2.976,3.582,4.332c0.678,1.357,1.017,2.908,1.017,4.658
		c0,1.336-0.157,2.541-0.472,3.611c-0.314,1.072-0.801,2.027-1.459,2.873s-1.538,1.523-2.639,2.033
		c-1.1,0.512-2.396,0.826-3.891,0.943v6.043c0,0.373-0.076,0.619-0.23,0.736c-0.156,0.119-0.52,0.178-1.096,0.178V68.07h-0.177
		c-1.022,0-1.979-0.068-2.874-0.205c-0.895-0.139-1.621-0.305-2.182-0.502c-0.56-0.195-1.046-0.412-1.459-0.648
		c-0.412-0.236-0.707-0.445-0.884-0.635C42.689,65.896,42.602,65.752,42.602,65.654z"/>
</g>
</svg>
