<?xml version="1.0" encoding="utf-8"?>
<!-- Generator: Adobe Illustrator 19.0.0, SVG Export Plug-In . SVG Version: 6.00 Build 0)  -->
<svg version="1.1" id="Layer_1" xmlns="http://www.w3.org/2000/svg" xmlns:xlink="http://www.w3.org/1999/xlink" x="0px" y="0px"
	 viewBox="-1.4 -1.2 52.9 52.6" style="enable-background:new -1.4 -1.2 52.9 52.6;" xml:space="preserve">
<style type="text/css">
	.st0{fill:#FFFFFF;}
	.st1{fill:#16A7DC;}
</style>
<g>
	<g id="XMLID_3_">
		
			<image style="overflow:visible;opacity:0.3;enable-background:new    ;" width="238" height="238" id="XMLID_25_" xlink:href="4BB71389.png"  transform="matrix(0.236 0 0 0.236 -3 -3)">
		</image>
		<g id="XMLID_18_">
			<circle id="XMLID_24_" class="st0" cx="25" cy="25" r="25"/>
		</g>
	</g>
	<path id="XMLID_5_" class="st1" d="M11,28.8c-0.3,0.3-0.5,0.7-0.5,1.1s0.2,0.8,0.5,1.1l1,1c0.6,0.6,1.6,0.6,2.2,0L25,21.2L35.8,32
		c0.3,0.3,0.7,0.5,1.1,0.5c0.4,0,0.8-0.2,1.1-0.5l0.9-0.9c0.3-0.3,0.5-0.7,0.5-1.1s-0.2-0.8-0.5-1.1L26.1,16
		c-0.3-0.3-0.7-0.5-1.1-0.5s-0.8,0.2-1.1,0.5L11,28.8z"/>
</g>
</svg>
